%TF.GenerationSoftware,KiCad,Pcbnew,(5.1.9-0-10_14)*%
%TF.CreationDate,2021-02-22T22:45:40+08:00*%
%TF.ProjectId,sky_girlsday,736b795f-6769-4726-9c73-6461792e6b69,rev?*%
%TF.SameCoordinates,Original*%
%TF.FileFunction,Legend,Top*%
%TF.FilePolarity,Positive*%
%FSLAX46Y46*%
G04 Gerber Fmt 4.6, Leading zero omitted, Abs format (unit mm)*
G04 Created by KiCad (PCBNEW (5.1.9-0-10_14)) date 2021-02-22 22:45:40*
%MOMM*%
%LPD*%
G01*
G04 APERTURE LIST*
%ADD10C,0.120000*%
%ADD11C,0.150000*%
G04 APERTURE END LIST*
D10*
%TO.C,D4*%
X130365000Y-138040000D02*
X127680000Y-138040000D01*
X130365000Y-139960000D02*
X130365000Y-138040000D01*
X127680000Y-139960000D02*
X130365000Y-139960000D01*
%TO.C,D3*%
X118697500Y-137240000D02*
X116012500Y-137240000D01*
X118697500Y-139160000D02*
X118697500Y-137240000D01*
X116012500Y-139160000D02*
X118697500Y-139160000D01*
%TO.C,D2*%
X103997500Y-137540000D02*
X101312500Y-137540000D01*
X103997500Y-139460000D02*
X103997500Y-137540000D01*
X101312500Y-139460000D02*
X103997500Y-139460000D01*
%TO.C,D1*%
X93197500Y-137540000D02*
X90512500Y-137540000D01*
X93197500Y-139460000D02*
X93197500Y-137540000D01*
X90512500Y-139460000D02*
X93197500Y-139460000D01*
%TO.C,J1*%
D11*
X111006666Y-137292380D02*
X111006666Y-138006666D01*
X110959047Y-138149523D01*
X110863809Y-138244761D01*
X110720952Y-138292380D01*
X110625714Y-138292380D01*
X112006666Y-138292380D02*
X111435238Y-138292380D01*
X111720952Y-138292380D02*
X111720952Y-137292380D01*
X111625714Y-137435238D01*
X111530476Y-137530476D01*
X111435238Y-137578095D01*
%TO.C,D4*%
X127941904Y-141102380D02*
X127941904Y-140102380D01*
X128180000Y-140102380D01*
X128322857Y-140150000D01*
X128418095Y-140245238D01*
X128465714Y-140340476D01*
X128513333Y-140530952D01*
X128513333Y-140673809D01*
X128465714Y-140864285D01*
X128418095Y-140959523D01*
X128322857Y-141054761D01*
X128180000Y-141102380D01*
X127941904Y-141102380D01*
X129370476Y-140435714D02*
X129370476Y-141102380D01*
X129132380Y-140054761D02*
X128894285Y-140769047D01*
X129513333Y-140769047D01*
%TO.C,D3*%
X116274404Y-140302380D02*
X116274404Y-139302380D01*
X116512500Y-139302380D01*
X116655357Y-139350000D01*
X116750595Y-139445238D01*
X116798214Y-139540476D01*
X116845833Y-139730952D01*
X116845833Y-139873809D01*
X116798214Y-140064285D01*
X116750595Y-140159523D01*
X116655357Y-140254761D01*
X116512500Y-140302380D01*
X116274404Y-140302380D01*
X117179166Y-139302380D02*
X117798214Y-139302380D01*
X117464880Y-139683333D01*
X117607738Y-139683333D01*
X117702976Y-139730952D01*
X117750595Y-139778571D01*
X117798214Y-139873809D01*
X117798214Y-140111904D01*
X117750595Y-140207142D01*
X117702976Y-140254761D01*
X117607738Y-140302380D01*
X117322023Y-140302380D01*
X117226785Y-140254761D01*
X117179166Y-140207142D01*
%TO.C,D2*%
X101574404Y-140602380D02*
X101574404Y-139602380D01*
X101812500Y-139602380D01*
X101955357Y-139650000D01*
X102050595Y-139745238D01*
X102098214Y-139840476D01*
X102145833Y-140030952D01*
X102145833Y-140173809D01*
X102098214Y-140364285D01*
X102050595Y-140459523D01*
X101955357Y-140554761D01*
X101812500Y-140602380D01*
X101574404Y-140602380D01*
X102526785Y-139697619D02*
X102574404Y-139650000D01*
X102669642Y-139602380D01*
X102907738Y-139602380D01*
X103002976Y-139650000D01*
X103050595Y-139697619D01*
X103098214Y-139792857D01*
X103098214Y-139888095D01*
X103050595Y-140030952D01*
X102479166Y-140602380D01*
X103098214Y-140602380D01*
%TO.C,D1*%
X90774404Y-140602380D02*
X90774404Y-139602380D01*
X91012500Y-139602380D01*
X91155357Y-139650000D01*
X91250595Y-139745238D01*
X91298214Y-139840476D01*
X91345833Y-140030952D01*
X91345833Y-140173809D01*
X91298214Y-140364285D01*
X91250595Y-140459523D01*
X91155357Y-140554761D01*
X91012500Y-140602380D01*
X90774404Y-140602380D01*
X92298214Y-140602380D02*
X91726785Y-140602380D01*
X92012500Y-140602380D02*
X92012500Y-139602380D01*
X91917261Y-139745238D01*
X91822023Y-139840476D01*
X91726785Y-139888095D01*
%TD*%
M02*
