%TF.GenerationSoftware,KiCad,Pcbnew,(5.1.9-0-10_14)*%
%TF.CreationDate,2021-02-22T22:45:40+08:00*%
%TF.ProjectId,sky_girlsday,736b795f-6769-4726-9c73-6461792e6b69,rev?*%
%TF.SameCoordinates,Original*%
%TF.FileFunction,Copper,L2,Bot*%
%TF.FilePolarity,Positive*%
%FSLAX46Y46*%
G04 Gerber Fmt 4.6, Leading zero omitted, Abs format (unit mm)*
G04 Created by KiCad (PCBNEW (5.1.9-0-10_14)) date 2021-02-22 22:45:40*
%MOMM*%
%LPD*%
G01*
G04 APERTURE LIST*
%TA.AperFunction,ViaPad*%
%ADD10C,0.800000*%
%TD*%
%TA.AperFunction,Conductor*%
%ADD11C,0.250000*%
%TD*%
G04 APERTURE END LIST*
%TO.P,R1,1*%
%TO.N,Net-(D1-Pad1)*%
%TA.AperFunction,SMDPad,CuDef*%
G36*
G01*
X87935000Y-139770000D02*
X87565000Y-139770000D01*
G75*
G02*
X87430000Y-139635000I0J135000D01*
G01*
X87430000Y-139365000D01*
G75*
G02*
X87565000Y-139230000I135000J0D01*
G01*
X87935000Y-139230000D01*
G75*
G02*
X88070000Y-139365000I0J-135000D01*
G01*
X88070000Y-139635000D01*
G75*
G02*
X87935000Y-139770000I-135000J0D01*
G01*
G37*
%TD.AperFunction*%
%TO.P,R1,2*%
%TO.N,+5V*%
%TA.AperFunction,SMDPad,CuDef*%
G36*
G01*
X87935000Y-138750000D02*
X87565000Y-138750000D01*
G75*
G02*
X87430000Y-138615000I0J135000D01*
G01*
X87430000Y-138345000D01*
G75*
G02*
X87565000Y-138210000I135000J0D01*
G01*
X87935000Y-138210000D01*
G75*
G02*
X88070000Y-138345000I0J-135000D01*
G01*
X88070000Y-138615000D01*
G75*
G02*
X87935000Y-138750000I-135000J0D01*
G01*
G37*
%TD.AperFunction*%
%TD*%
%TO.P,R2,2*%
%TO.N,+5V*%
%TA.AperFunction,SMDPad,CuDef*%
G36*
G01*
X98685000Y-138760000D02*
X98315000Y-138760000D01*
G75*
G02*
X98180000Y-138625000I0J135000D01*
G01*
X98180000Y-138355000D01*
G75*
G02*
X98315000Y-138220000I135000J0D01*
G01*
X98685000Y-138220000D01*
G75*
G02*
X98820000Y-138355000I0J-135000D01*
G01*
X98820000Y-138625000D01*
G75*
G02*
X98685000Y-138760000I-135000J0D01*
G01*
G37*
%TD.AperFunction*%
%TO.P,R2,1*%
%TO.N,Net-(D2-Pad1)*%
%TA.AperFunction,SMDPad,CuDef*%
G36*
G01*
X98685000Y-139780000D02*
X98315000Y-139780000D01*
G75*
G02*
X98180000Y-139645000I0J135000D01*
G01*
X98180000Y-139375000D01*
G75*
G02*
X98315000Y-139240000I135000J0D01*
G01*
X98685000Y-139240000D01*
G75*
G02*
X98820000Y-139375000I0J-135000D01*
G01*
X98820000Y-139645000D01*
G75*
G02*
X98685000Y-139780000I-135000J0D01*
G01*
G37*
%TD.AperFunction*%
%TD*%
%TO.P,R3,1*%
%TO.N,Net-(D3-Pad1)*%
%TA.AperFunction,SMDPad,CuDef*%
G36*
G01*
X121435000Y-139780000D02*
X121065000Y-139780000D01*
G75*
G02*
X120930000Y-139645000I0J135000D01*
G01*
X120930000Y-139375000D01*
G75*
G02*
X121065000Y-139240000I135000J0D01*
G01*
X121435000Y-139240000D01*
G75*
G02*
X121570000Y-139375000I0J-135000D01*
G01*
X121570000Y-139645000D01*
G75*
G02*
X121435000Y-139780000I-135000J0D01*
G01*
G37*
%TD.AperFunction*%
%TO.P,R3,2*%
%TO.N,+5V*%
%TA.AperFunction,SMDPad,CuDef*%
G36*
G01*
X121435000Y-138760000D02*
X121065000Y-138760000D01*
G75*
G02*
X120930000Y-138625000I0J135000D01*
G01*
X120930000Y-138355000D01*
G75*
G02*
X121065000Y-138220000I135000J0D01*
G01*
X121435000Y-138220000D01*
G75*
G02*
X121570000Y-138355000I0J-135000D01*
G01*
X121570000Y-138625000D01*
G75*
G02*
X121435000Y-138760000I-135000J0D01*
G01*
G37*
%TD.AperFunction*%
%TD*%
%TO.P,R4,2*%
%TO.N,+5V*%
%TA.AperFunction,SMDPad,CuDef*%
G36*
G01*
X132435000Y-138750000D02*
X132065000Y-138750000D01*
G75*
G02*
X131930000Y-138615000I0J135000D01*
G01*
X131930000Y-138345000D01*
G75*
G02*
X132065000Y-138210000I135000J0D01*
G01*
X132435000Y-138210000D01*
G75*
G02*
X132570000Y-138345000I0J-135000D01*
G01*
X132570000Y-138615000D01*
G75*
G02*
X132435000Y-138750000I-135000J0D01*
G01*
G37*
%TD.AperFunction*%
%TO.P,R4,1*%
%TO.N,Net-(D4-Pad1)*%
%TA.AperFunction,SMDPad,CuDef*%
G36*
G01*
X132435000Y-139770000D02*
X132065000Y-139770000D01*
G75*
G02*
X131930000Y-139635000I0J135000D01*
G01*
X131930000Y-139365000D01*
G75*
G02*
X132065000Y-139230000I135000J0D01*
G01*
X132435000Y-139230000D01*
G75*
G02*
X132570000Y-139365000I0J-135000D01*
G01*
X132570000Y-139635000D01*
G75*
G02*
X132435000Y-139770000I-135000J0D01*
G01*
G37*
%TD.AperFunction*%
%TD*%
D10*
%TO.N,Net-(D1-Pad1)*%
X89000000Y-140000000D03*
%TO.N,Net-(D2-Pad1)*%
X98992347Y-140007653D03*
%TO.N,Net-(D3-Pad1)*%
X121000000Y-140000000D03*
%TO.N,Net-(D4-Pad1)*%
X131000000Y-140000000D03*
%TO.N,+5V*%
X108000000Y-140000000D03*
%TD*%
D11*
%TO.N,Net-(D1-Pad1)*%
X87750000Y-139500000D02*
X88500000Y-139500000D01*
X88500000Y-139500000D02*
X89000000Y-140000000D01*
%TO.N,Net-(D2-Pad1)*%
X98500000Y-139510000D02*
X98510000Y-139510000D01*
X98992347Y-139992347D02*
X98992347Y-140007653D01*
X98510000Y-139510000D02*
X98992347Y-139992347D01*
%TO.N,Net-(D3-Pad1)*%
X121250000Y-139510000D02*
X121250000Y-139750000D01*
X121250000Y-139750000D02*
X121000000Y-140000000D01*
%TO.N,Net-(D4-Pad1)*%
X132250000Y-139500000D02*
X131500000Y-139500000D01*
X131500000Y-139500000D02*
X131000000Y-140000000D01*
%TO.N,+5V*%
X100010000Y-140000000D02*
X98500000Y-138490000D01*
X108000000Y-140000000D02*
X100010000Y-140000000D01*
X87760000Y-138490000D02*
X87750000Y-138480000D01*
X98500000Y-138490000D02*
X87760000Y-138490000D01*
X119740000Y-140000000D02*
X121250000Y-138490000D01*
X108000000Y-140000000D02*
X119740000Y-140000000D01*
X132240000Y-138490000D02*
X132250000Y-138480000D01*
X121250000Y-138490000D02*
X132240000Y-138490000D01*
%TD*%
M02*
