%TF.GenerationSoftware,KiCad,Pcbnew,(5.1.9-0-10_14)*%
%TF.CreationDate,2021-02-22T22:45:40+08:00*%
%TF.ProjectId,sky_girlsday,736b795f-6769-4726-9c73-6461792e6b69,rev?*%
%TF.SameCoordinates,Original*%
%TF.FileFunction,Paste,Bot*%
%TF.FilePolarity,Positive*%
%FSLAX46Y46*%
G04 Gerber Fmt 4.6, Leading zero omitted, Abs format (unit mm)*
G04 Created by KiCad (PCBNEW (5.1.9-0-10_14)) date 2021-02-22 22:45:40*
%MOMM*%
%LPD*%
G01*
G04 APERTURE LIST*
G04 APERTURE END LIST*
%TO.C,R1*%
G36*
G01*
X87935000Y-139770000D02*
X87565000Y-139770000D01*
G75*
G02*
X87430000Y-139635000I0J135000D01*
G01*
X87430000Y-139365000D01*
G75*
G02*
X87565000Y-139230000I135000J0D01*
G01*
X87935000Y-139230000D01*
G75*
G02*
X88070000Y-139365000I0J-135000D01*
G01*
X88070000Y-139635000D01*
G75*
G02*
X87935000Y-139770000I-135000J0D01*
G01*
G37*
G36*
G01*
X87935000Y-138750000D02*
X87565000Y-138750000D01*
G75*
G02*
X87430000Y-138615000I0J135000D01*
G01*
X87430000Y-138345000D01*
G75*
G02*
X87565000Y-138210000I135000J0D01*
G01*
X87935000Y-138210000D01*
G75*
G02*
X88070000Y-138345000I0J-135000D01*
G01*
X88070000Y-138615000D01*
G75*
G02*
X87935000Y-138750000I-135000J0D01*
G01*
G37*
%TD*%
%TO.C,R2*%
G36*
G01*
X98685000Y-138760000D02*
X98315000Y-138760000D01*
G75*
G02*
X98180000Y-138625000I0J135000D01*
G01*
X98180000Y-138355000D01*
G75*
G02*
X98315000Y-138220000I135000J0D01*
G01*
X98685000Y-138220000D01*
G75*
G02*
X98820000Y-138355000I0J-135000D01*
G01*
X98820000Y-138625000D01*
G75*
G02*
X98685000Y-138760000I-135000J0D01*
G01*
G37*
G36*
G01*
X98685000Y-139780000D02*
X98315000Y-139780000D01*
G75*
G02*
X98180000Y-139645000I0J135000D01*
G01*
X98180000Y-139375000D01*
G75*
G02*
X98315000Y-139240000I135000J0D01*
G01*
X98685000Y-139240000D01*
G75*
G02*
X98820000Y-139375000I0J-135000D01*
G01*
X98820000Y-139645000D01*
G75*
G02*
X98685000Y-139780000I-135000J0D01*
G01*
G37*
%TD*%
%TO.C,R3*%
G36*
G01*
X121435000Y-139780000D02*
X121065000Y-139780000D01*
G75*
G02*
X120930000Y-139645000I0J135000D01*
G01*
X120930000Y-139375000D01*
G75*
G02*
X121065000Y-139240000I135000J0D01*
G01*
X121435000Y-139240000D01*
G75*
G02*
X121570000Y-139375000I0J-135000D01*
G01*
X121570000Y-139645000D01*
G75*
G02*
X121435000Y-139780000I-135000J0D01*
G01*
G37*
G36*
G01*
X121435000Y-138760000D02*
X121065000Y-138760000D01*
G75*
G02*
X120930000Y-138625000I0J135000D01*
G01*
X120930000Y-138355000D01*
G75*
G02*
X121065000Y-138220000I135000J0D01*
G01*
X121435000Y-138220000D01*
G75*
G02*
X121570000Y-138355000I0J-135000D01*
G01*
X121570000Y-138625000D01*
G75*
G02*
X121435000Y-138760000I-135000J0D01*
G01*
G37*
%TD*%
%TO.C,R4*%
G36*
G01*
X132435000Y-138750000D02*
X132065000Y-138750000D01*
G75*
G02*
X131930000Y-138615000I0J135000D01*
G01*
X131930000Y-138345000D01*
G75*
G02*
X132065000Y-138210000I135000J0D01*
G01*
X132435000Y-138210000D01*
G75*
G02*
X132570000Y-138345000I0J-135000D01*
G01*
X132570000Y-138615000D01*
G75*
G02*
X132435000Y-138750000I-135000J0D01*
G01*
G37*
G36*
G01*
X132435000Y-139770000D02*
X132065000Y-139770000D01*
G75*
G02*
X131930000Y-139635000I0J135000D01*
G01*
X131930000Y-139365000D01*
G75*
G02*
X132065000Y-139230000I135000J0D01*
G01*
X132435000Y-139230000D01*
G75*
G02*
X132570000Y-139365000I0J-135000D01*
G01*
X132570000Y-139635000D01*
G75*
G02*
X132435000Y-139770000I-135000J0D01*
G01*
G37*
%TD*%
M02*
