%TF.GenerationSoftware,KiCad,Pcbnew,(5.1.9-0-10_14)*%
%TF.CreationDate,2021-02-22T22:45:40+08:00*%
%TF.ProjectId,sky_girlsday,736b795f-6769-4726-9c73-6461792e6b69,rev?*%
%TF.SameCoordinates,Original*%
%TF.FileFunction,Paste,Top*%
%TF.FilePolarity,Positive*%
%FSLAX46Y46*%
G04 Gerber Fmt 4.6, Leading zero omitted, Abs format (unit mm)*
G04 Created by KiCad (PCBNEW (5.1.9-0-10_14)) date 2021-02-22 22:45:40*
%MOMM*%
%LPD*%
G01*
G04 APERTURE LIST*
%ADD10R,1.270000X12.065000*%
%ADD11R,1.270000X12.700000*%
G04 APERTURE END LIST*
D10*
%TO.C,J1*%
X110260500Y-148314800D03*
X112419500Y-148314800D03*
D11*
X115150000Y-148000000D03*
X107530000Y-148000000D03*
%TD*%
%TO.C,D4*%
G36*
G01*
X128230000Y-138543750D02*
X128230000Y-139456250D01*
G75*
G02*
X127986250Y-139700000I-243750J0D01*
G01*
X127498750Y-139700000D01*
G75*
G02*
X127255000Y-139456250I0J243750D01*
G01*
X127255000Y-138543750D01*
G75*
G02*
X127498750Y-138300000I243750J0D01*
G01*
X127986250Y-138300000D01*
G75*
G02*
X128230000Y-138543750I0J-243750D01*
G01*
G37*
G36*
G01*
X130105000Y-138543750D02*
X130105000Y-139456250D01*
G75*
G02*
X129861250Y-139700000I-243750J0D01*
G01*
X129373750Y-139700000D01*
G75*
G02*
X129130000Y-139456250I0J243750D01*
G01*
X129130000Y-138543750D01*
G75*
G02*
X129373750Y-138300000I243750J0D01*
G01*
X129861250Y-138300000D01*
G75*
G02*
X130105000Y-138543750I0J-243750D01*
G01*
G37*
%TD*%
%TO.C,D3*%
G36*
G01*
X116562500Y-137743750D02*
X116562500Y-138656250D01*
G75*
G02*
X116318750Y-138900000I-243750J0D01*
G01*
X115831250Y-138900000D01*
G75*
G02*
X115587500Y-138656250I0J243750D01*
G01*
X115587500Y-137743750D01*
G75*
G02*
X115831250Y-137500000I243750J0D01*
G01*
X116318750Y-137500000D01*
G75*
G02*
X116562500Y-137743750I0J-243750D01*
G01*
G37*
G36*
G01*
X118437500Y-137743750D02*
X118437500Y-138656250D01*
G75*
G02*
X118193750Y-138900000I-243750J0D01*
G01*
X117706250Y-138900000D01*
G75*
G02*
X117462500Y-138656250I0J243750D01*
G01*
X117462500Y-137743750D01*
G75*
G02*
X117706250Y-137500000I243750J0D01*
G01*
X118193750Y-137500000D01*
G75*
G02*
X118437500Y-137743750I0J-243750D01*
G01*
G37*
%TD*%
%TO.C,D2*%
G36*
G01*
X101862500Y-138043750D02*
X101862500Y-138956250D01*
G75*
G02*
X101618750Y-139200000I-243750J0D01*
G01*
X101131250Y-139200000D01*
G75*
G02*
X100887500Y-138956250I0J243750D01*
G01*
X100887500Y-138043750D01*
G75*
G02*
X101131250Y-137800000I243750J0D01*
G01*
X101618750Y-137800000D01*
G75*
G02*
X101862500Y-138043750I0J-243750D01*
G01*
G37*
G36*
G01*
X103737500Y-138043750D02*
X103737500Y-138956250D01*
G75*
G02*
X103493750Y-139200000I-243750J0D01*
G01*
X103006250Y-139200000D01*
G75*
G02*
X102762500Y-138956250I0J243750D01*
G01*
X102762500Y-138043750D01*
G75*
G02*
X103006250Y-137800000I243750J0D01*
G01*
X103493750Y-137800000D01*
G75*
G02*
X103737500Y-138043750I0J-243750D01*
G01*
G37*
%TD*%
%TO.C,D1*%
G36*
G01*
X91062500Y-138043750D02*
X91062500Y-138956250D01*
G75*
G02*
X90818750Y-139200000I-243750J0D01*
G01*
X90331250Y-139200000D01*
G75*
G02*
X90087500Y-138956250I0J243750D01*
G01*
X90087500Y-138043750D01*
G75*
G02*
X90331250Y-137800000I243750J0D01*
G01*
X90818750Y-137800000D01*
G75*
G02*
X91062500Y-138043750I0J-243750D01*
G01*
G37*
G36*
G01*
X92937500Y-138043750D02*
X92937500Y-138956250D01*
G75*
G02*
X92693750Y-139200000I-243750J0D01*
G01*
X92206250Y-139200000D01*
G75*
G02*
X91962500Y-138956250I0J243750D01*
G01*
X91962500Y-138043750D01*
G75*
G02*
X92206250Y-137800000I243750J0D01*
G01*
X92693750Y-137800000D01*
G75*
G02*
X92937500Y-138043750I0J-243750D01*
G01*
G37*
%TD*%
M02*
