%TF.GenerationSoftware,KiCad,Pcbnew,(5.1.9-0-10_14)*%
%TF.CreationDate,2021-02-27T21:01:07+08:00*%
%TF.ProjectId,sky_girlsday,736b795f-6769-4726-9c73-6461792e6b69,rev?*%
%TF.SameCoordinates,Original*%
%TF.FileFunction,Paste,Bot*%
%TF.FilePolarity,Positive*%
%FSLAX46Y46*%
G04 Gerber Fmt 4.6, Leading zero omitted, Abs format (unit mm)*
G04 Created by KiCad (PCBNEW (5.1.9-0-10_14)) date 2021-02-27 21:01:07*
%MOMM*%
%LPD*%
G01*
G04 APERTURE LIST*
G04 APERTURE END LIST*
%TO.C,D4*%
G36*
G01*
X137630000Y-135743750D02*
X137630000Y-136656250D01*
G75*
G02*
X137386250Y-136900000I-243750J0D01*
G01*
X136898750Y-136900000D01*
G75*
G02*
X136655000Y-136656250I0J243750D01*
G01*
X136655000Y-135743750D01*
G75*
G02*
X136898750Y-135500000I243750J0D01*
G01*
X137386250Y-135500000D01*
G75*
G02*
X137630000Y-135743750I0J-243750D01*
G01*
G37*
G36*
G01*
X139505000Y-135743750D02*
X139505000Y-136656250D01*
G75*
G02*
X139261250Y-136900000I-243750J0D01*
G01*
X138773750Y-136900000D01*
G75*
G02*
X138530000Y-136656250I0J243750D01*
G01*
X138530000Y-135743750D01*
G75*
G02*
X138773750Y-135500000I243750J0D01*
G01*
X139261250Y-135500000D01*
G75*
G02*
X139505000Y-135743750I0J-243750D01*
G01*
G37*
%TD*%
%TO.C,D3*%
G36*
G01*
X117550000Y-135543750D02*
X117550000Y-136456250D01*
G75*
G02*
X117306250Y-136700000I-243750J0D01*
G01*
X116818750Y-136700000D01*
G75*
G02*
X116575000Y-136456250I0J243750D01*
G01*
X116575000Y-135543750D01*
G75*
G02*
X116818750Y-135300000I243750J0D01*
G01*
X117306250Y-135300000D01*
G75*
G02*
X117550000Y-135543750I0J-243750D01*
G01*
G37*
G36*
G01*
X119425000Y-135543750D02*
X119425000Y-136456250D01*
G75*
G02*
X119181250Y-136700000I-243750J0D01*
G01*
X118693750Y-136700000D01*
G75*
G02*
X118450000Y-136456250I0J243750D01*
G01*
X118450000Y-135543750D01*
G75*
G02*
X118693750Y-135300000I243750J0D01*
G01*
X119181250Y-135300000D01*
G75*
G02*
X119425000Y-135543750I0J-243750D01*
G01*
G37*
%TD*%
%TO.C,D2*%
G36*
G01*
X104550000Y-135543750D02*
X104550000Y-136456250D01*
G75*
G02*
X104306250Y-136700000I-243750J0D01*
G01*
X103818750Y-136700000D01*
G75*
G02*
X103575000Y-136456250I0J243750D01*
G01*
X103575000Y-135543750D01*
G75*
G02*
X103818750Y-135300000I243750J0D01*
G01*
X104306250Y-135300000D01*
G75*
G02*
X104550000Y-135543750I0J-243750D01*
G01*
G37*
G36*
G01*
X106425000Y-135543750D02*
X106425000Y-136456250D01*
G75*
G02*
X106181250Y-136700000I-243750J0D01*
G01*
X105693750Y-136700000D01*
G75*
G02*
X105450000Y-136456250I0J243750D01*
G01*
X105450000Y-135543750D01*
G75*
G02*
X105693750Y-135300000I243750J0D01*
G01*
X106181250Y-135300000D01*
G75*
G02*
X106425000Y-135543750I0J-243750D01*
G01*
G37*
%TD*%
%TO.C,D1*%
G36*
G01*
X82550000Y-135543750D02*
X82550000Y-136456250D01*
G75*
G02*
X82306250Y-136700000I-243750J0D01*
G01*
X81818750Y-136700000D01*
G75*
G02*
X81575000Y-136456250I0J243750D01*
G01*
X81575000Y-135543750D01*
G75*
G02*
X81818750Y-135300000I243750J0D01*
G01*
X82306250Y-135300000D01*
G75*
G02*
X82550000Y-135543750I0J-243750D01*
G01*
G37*
G36*
G01*
X84425000Y-135543750D02*
X84425000Y-136456250D01*
G75*
G02*
X84181250Y-136700000I-243750J0D01*
G01*
X83693750Y-136700000D01*
G75*
G02*
X83450000Y-136456250I0J243750D01*
G01*
X83450000Y-135543750D01*
G75*
G02*
X83693750Y-135300000I243750J0D01*
G01*
X84181250Y-135300000D01*
G75*
G02*
X84425000Y-135543750I0J-243750D01*
G01*
G37*
%TD*%
%TO.C,R1*%
G36*
G01*
X87065000Y-138230000D02*
X87435000Y-138230000D01*
G75*
G02*
X87570000Y-138365000I0J-135000D01*
G01*
X87570000Y-138635000D01*
G75*
G02*
X87435000Y-138770000I-135000J0D01*
G01*
X87065000Y-138770000D01*
G75*
G02*
X86930000Y-138635000I0J135000D01*
G01*
X86930000Y-138365000D01*
G75*
G02*
X87065000Y-138230000I135000J0D01*
G01*
G37*
G36*
G01*
X87065000Y-139250000D02*
X87435000Y-139250000D01*
G75*
G02*
X87570000Y-139385000I0J-135000D01*
G01*
X87570000Y-139655000D01*
G75*
G02*
X87435000Y-139790000I-135000J0D01*
G01*
X87065000Y-139790000D01*
G75*
G02*
X86930000Y-139655000I0J135000D01*
G01*
X86930000Y-139385000D01*
G75*
G02*
X87065000Y-139250000I135000J0D01*
G01*
G37*
%TD*%
%TO.C,R2*%
G36*
G01*
X98315000Y-139240000D02*
X98685000Y-139240000D01*
G75*
G02*
X98820000Y-139375000I0J-135000D01*
G01*
X98820000Y-139645000D01*
G75*
G02*
X98685000Y-139780000I-135000J0D01*
G01*
X98315000Y-139780000D01*
G75*
G02*
X98180000Y-139645000I0J135000D01*
G01*
X98180000Y-139375000D01*
G75*
G02*
X98315000Y-139240000I135000J0D01*
G01*
G37*
G36*
G01*
X98315000Y-138220000D02*
X98685000Y-138220000D01*
G75*
G02*
X98820000Y-138355000I0J-135000D01*
G01*
X98820000Y-138625000D01*
G75*
G02*
X98685000Y-138760000I-135000J0D01*
G01*
X98315000Y-138760000D01*
G75*
G02*
X98180000Y-138625000I0J135000D01*
G01*
X98180000Y-138355000D01*
G75*
G02*
X98315000Y-138220000I135000J0D01*
G01*
G37*
%TD*%
%TO.C,R3*%
G36*
G01*
X121065000Y-138220000D02*
X121435000Y-138220000D01*
G75*
G02*
X121570000Y-138355000I0J-135000D01*
G01*
X121570000Y-138625000D01*
G75*
G02*
X121435000Y-138760000I-135000J0D01*
G01*
X121065000Y-138760000D01*
G75*
G02*
X120930000Y-138625000I0J135000D01*
G01*
X120930000Y-138355000D01*
G75*
G02*
X121065000Y-138220000I135000J0D01*
G01*
G37*
G36*
G01*
X121065000Y-139240000D02*
X121435000Y-139240000D01*
G75*
G02*
X121570000Y-139375000I0J-135000D01*
G01*
X121570000Y-139645000D01*
G75*
G02*
X121435000Y-139780000I-135000J0D01*
G01*
X121065000Y-139780000D01*
G75*
G02*
X120930000Y-139645000I0J135000D01*
G01*
X120930000Y-139375000D01*
G75*
G02*
X121065000Y-139240000I135000J0D01*
G01*
G37*
%TD*%
%TO.C,R4*%
G36*
G01*
X132565000Y-139250000D02*
X132935000Y-139250000D01*
G75*
G02*
X133070000Y-139385000I0J-135000D01*
G01*
X133070000Y-139655000D01*
G75*
G02*
X132935000Y-139790000I-135000J0D01*
G01*
X132565000Y-139790000D01*
G75*
G02*
X132430000Y-139655000I0J135000D01*
G01*
X132430000Y-139385000D01*
G75*
G02*
X132565000Y-139250000I135000J0D01*
G01*
G37*
G36*
G01*
X132565000Y-138230000D02*
X132935000Y-138230000D01*
G75*
G02*
X133070000Y-138365000I0J-135000D01*
G01*
X133070000Y-138635000D01*
G75*
G02*
X132935000Y-138770000I-135000J0D01*
G01*
X132565000Y-138770000D01*
G75*
G02*
X132430000Y-138635000I0J135000D01*
G01*
X132430000Y-138365000D01*
G75*
G02*
X132565000Y-138230000I135000J0D01*
G01*
G37*
%TD*%
M02*
