%TF.GenerationSoftware,KiCad,Pcbnew,(5.1.9-0-10_14)*%
%TF.CreationDate,2021-03-02T12:46:57+08:00*%
%TF.ProjectId,sky_girlsday,736b795f-6769-4726-9c73-6461792e6b69,rev?*%
%TF.SameCoordinates,Original*%
%TF.FileFunction,Legend,Top*%
%TF.FilePolarity,Positive*%
%FSLAX46Y46*%
G04 Gerber Fmt 4.6, Leading zero omitted, Abs format (unit mm)*
G04 Created by KiCad (PCBNEW (5.1.9-0-10_14)) date 2021-03-02 12:46:57*
%MOMM*%
%LPD*%
G01*
G04 APERTURE LIST*
%ADD10C,0.010000*%
%ADD11C,0.120000*%
G04 APERTURE END LIST*
D10*
%TO.C,G\u002A\u002A\u002A*%
G36*
X135664133Y-132271866D02*
G01*
X135660646Y-132286966D01*
X135647200Y-132288800D01*
X135626292Y-132279506D01*
X135630266Y-132271866D01*
X135660410Y-132268826D01*
X135664133Y-132271866D01*
G37*
X135664133Y-132271866D02*
X135660646Y-132286966D01*
X135647200Y-132288800D01*
X135626292Y-132279506D01*
X135630266Y-132271866D01*
X135660410Y-132268826D01*
X135664133Y-132271866D01*
G36*
X135418600Y-132352300D02*
G01*
X135405900Y-132365000D01*
X135393200Y-132352300D01*
X135405900Y-132339600D01*
X135418600Y-132352300D01*
G37*
X135418600Y-132352300D02*
X135405900Y-132365000D01*
X135393200Y-132352300D01*
X135405900Y-132339600D01*
X135418600Y-132352300D01*
G36*
X135922874Y-132358074D02*
G01*
X135926600Y-132376200D01*
X135918229Y-132412899D01*
X135896235Y-132401898D01*
X135889584Y-132392155D01*
X135892769Y-132359533D01*
X135900785Y-132352556D01*
X135922874Y-132358074D01*
G37*
X135922874Y-132358074D02*
X135926600Y-132376200D01*
X135918229Y-132412899D01*
X135896235Y-132401898D01*
X135889584Y-132392155D01*
X135892769Y-132359533D01*
X135900785Y-132352556D01*
X135922874Y-132358074D01*
G36*
X135410133Y-132475066D02*
G01*
X135406646Y-132490166D01*
X135393200Y-132492000D01*
X135372292Y-132482706D01*
X135376266Y-132475066D01*
X135406410Y-132472026D01*
X135410133Y-132475066D01*
G37*
X135410133Y-132475066D02*
X135406646Y-132490166D01*
X135393200Y-132492000D01*
X135372292Y-132482706D01*
X135376266Y-132475066D01*
X135406410Y-132472026D01*
X135410133Y-132475066D01*
G36*
X135418600Y-132530100D02*
G01*
X135405900Y-132542800D01*
X135393200Y-132530100D01*
X135405900Y-132517400D01*
X135418600Y-132530100D01*
G37*
X135418600Y-132530100D02*
X135405900Y-132542800D01*
X135393200Y-132530100D01*
X135405900Y-132517400D01*
X135418600Y-132530100D01*
G36*
X134758200Y-132580900D02*
G01*
X134745500Y-132593600D01*
X134732800Y-132580900D01*
X134745500Y-132568200D01*
X134758200Y-132580900D01*
G37*
X134758200Y-132580900D02*
X134745500Y-132593600D01*
X134732800Y-132580900D01*
X134745500Y-132568200D01*
X134758200Y-132580900D01*
G36*
X136002800Y-132606300D02*
G01*
X135990100Y-132619000D01*
X135977400Y-132606300D01*
X135990100Y-132593600D01*
X136002800Y-132606300D01*
G37*
X136002800Y-132606300D02*
X135990100Y-132619000D01*
X135977400Y-132606300D01*
X135990100Y-132593600D01*
X136002800Y-132606300D01*
G36*
X135423247Y-132659972D02*
G01*
X135433550Y-132689424D01*
X135430215Y-132696955D01*
X135409365Y-132719136D01*
X135401817Y-132693002D01*
X135401666Y-132683617D01*
X135412875Y-132658143D01*
X135423247Y-132659972D01*
G37*
X135423247Y-132659972D02*
X135433550Y-132689424D01*
X135430215Y-132696955D01*
X135409365Y-132719136D01*
X135401817Y-132693002D01*
X135401666Y-132683617D01*
X135412875Y-132658143D01*
X135423247Y-132659972D01*
G36*
X135871875Y-132730874D02*
G01*
X135899143Y-132756449D01*
X135893549Y-132771152D01*
X135889999Y-132771400D01*
X135868515Y-132753358D01*
X135860674Y-132742075D01*
X135857680Y-132724694D01*
X135871875Y-132730874D01*
G37*
X135871875Y-132730874D02*
X135899143Y-132756449D01*
X135893549Y-132771152D01*
X135889999Y-132771400D01*
X135868515Y-132753358D01*
X135860674Y-132742075D01*
X135857680Y-132724694D01*
X135871875Y-132730874D01*
G36*
X134936000Y-132758700D02*
G01*
X134923300Y-132771400D01*
X134910600Y-132758700D01*
X134923300Y-132746000D01*
X134936000Y-132758700D01*
G37*
X134936000Y-132758700D02*
X134923300Y-132771400D01*
X134910600Y-132758700D01*
X134923300Y-132746000D01*
X134936000Y-132758700D01*
G36*
X135817031Y-132787807D02*
G01*
X135812300Y-132796800D01*
X135788367Y-132821057D01*
X135783901Y-132822200D01*
X135782168Y-132805792D01*
X135786900Y-132796800D01*
X135810832Y-132772542D01*
X135815298Y-132771400D01*
X135817031Y-132787807D01*
G37*
X135817031Y-132787807D02*
X135812300Y-132796800D01*
X135788367Y-132821057D01*
X135783901Y-132822200D01*
X135782168Y-132805792D01*
X135786900Y-132796800D01*
X135810832Y-132772542D01*
X135815298Y-132771400D01*
X135817031Y-132787807D01*
G36*
X135494800Y-132834900D02*
G01*
X135482100Y-132847600D01*
X135469400Y-132834900D01*
X135482100Y-132822200D01*
X135494800Y-132834900D01*
G37*
X135494800Y-132834900D02*
X135482100Y-132847600D01*
X135469400Y-132834900D01*
X135482100Y-132822200D01*
X135494800Y-132834900D01*
G36*
X135317000Y-132834900D02*
G01*
X135304300Y-132847600D01*
X135291600Y-132834900D01*
X135304300Y-132822200D01*
X135317000Y-132834900D01*
G37*
X135317000Y-132834900D02*
X135304300Y-132847600D01*
X135291600Y-132834900D01*
X135304300Y-132822200D01*
X135317000Y-132834900D01*
G36*
X134855875Y-132807074D02*
G01*
X134882929Y-132830685D01*
X134885200Y-132836399D01*
X134873145Y-132846838D01*
X134848049Y-132823446D01*
X134844674Y-132818275D01*
X134841680Y-132800894D01*
X134855875Y-132807074D01*
G37*
X134855875Y-132807074D02*
X134882929Y-132830685D01*
X134885200Y-132836399D01*
X134873145Y-132846838D01*
X134848049Y-132823446D01*
X134844674Y-132818275D01*
X134841680Y-132800894D01*
X134855875Y-132807074D01*
G36*
X135215400Y-132860300D02*
G01*
X135202700Y-132873000D01*
X135190000Y-132860300D01*
X135202700Y-132847600D01*
X135215400Y-132860300D01*
G37*
X135215400Y-132860300D02*
X135202700Y-132873000D01*
X135190000Y-132860300D01*
X135202700Y-132847600D01*
X135215400Y-132860300D01*
G36*
X134986606Y-132812144D02*
G01*
X134989951Y-132815426D01*
X135010014Y-132848729D01*
X135007294Y-132860972D01*
X134988400Y-132853349D01*
X134975733Y-132829645D01*
X134967999Y-132799971D01*
X134986606Y-132812144D01*
G37*
X134986606Y-132812144D02*
X134989951Y-132815426D01*
X135010014Y-132848729D01*
X135007294Y-132860972D01*
X134988400Y-132853349D01*
X134975733Y-132829645D01*
X134967999Y-132799971D01*
X134986606Y-132812144D01*
G36*
X135164600Y-132885700D02*
G01*
X135151900Y-132898400D01*
X135139200Y-132885700D01*
X135151900Y-132873000D01*
X135164600Y-132885700D01*
G37*
X135164600Y-132885700D02*
X135151900Y-132898400D01*
X135139200Y-132885700D01*
X135151900Y-132873000D01*
X135164600Y-132885700D01*
G36*
X135063000Y-132885700D02*
G01*
X135050300Y-132898400D01*
X135037600Y-132885700D01*
X135050300Y-132873000D01*
X135063000Y-132885700D01*
G37*
X135063000Y-132885700D02*
X135050300Y-132898400D01*
X135037600Y-132885700D01*
X135050300Y-132873000D01*
X135063000Y-132885700D01*
G36*
X135113800Y-132936500D02*
G01*
X135101100Y-132949200D01*
X135088400Y-132936500D01*
X135101100Y-132923800D01*
X135113800Y-132936500D01*
G37*
X135113800Y-132936500D02*
X135101100Y-132949200D01*
X135088400Y-132936500D01*
X135101100Y-132923800D01*
X135113800Y-132936500D01*
G36*
X136458896Y-132919141D02*
G01*
X136460000Y-132936500D01*
X136446707Y-132970307D01*
X136435397Y-132974600D01*
X136421421Y-132955981D01*
X136425414Y-132936500D01*
X136443443Y-132903079D01*
X136450017Y-132898400D01*
X136458896Y-132919141D01*
G37*
X136458896Y-132919141D02*
X136460000Y-132936500D01*
X136446707Y-132970307D01*
X136435397Y-132974600D01*
X136421421Y-132955981D01*
X136425414Y-132936500D01*
X136443443Y-132903079D01*
X136450017Y-132898400D01*
X136458896Y-132919141D01*
G36*
X134978333Y-133084666D02*
G01*
X134974846Y-133099766D01*
X134961400Y-133101600D01*
X134940492Y-133092306D01*
X134944466Y-133084666D01*
X134974610Y-133081626D01*
X134978333Y-133084666D01*
G37*
X134978333Y-133084666D02*
X134974846Y-133099766D01*
X134961400Y-133101600D01*
X134940492Y-133092306D01*
X134944466Y-133084666D01*
X134974610Y-133081626D01*
X134978333Y-133084666D01*
G36*
X134910600Y-133114300D02*
G01*
X134897900Y-133127000D01*
X134885200Y-133114300D01*
X134897900Y-133101600D01*
X134910600Y-133114300D01*
G37*
X134910600Y-133114300D02*
X134897900Y-133127000D01*
X134885200Y-133114300D01*
X134897900Y-133101600D01*
X134910600Y-133114300D01*
G36*
X134961400Y-133139700D02*
G01*
X134948700Y-133152400D01*
X134936000Y-133139700D01*
X134948700Y-133127000D01*
X134961400Y-133139700D01*
G37*
X134961400Y-133139700D02*
X134948700Y-133152400D01*
X134936000Y-133139700D01*
X134948700Y-133127000D01*
X134961400Y-133139700D01*
G36*
X136358400Y-133241300D02*
G01*
X136345700Y-133254000D01*
X136333000Y-133241300D01*
X136345700Y-133228600D01*
X136358400Y-133241300D01*
G37*
X136358400Y-133241300D02*
X136345700Y-133254000D01*
X136333000Y-133241300D01*
X136345700Y-133228600D01*
X136358400Y-133241300D01*
G36*
X136299133Y-133237066D02*
G01*
X136295646Y-133252166D01*
X136282200Y-133254000D01*
X136261292Y-133244706D01*
X136265266Y-133237066D01*
X136295410Y-133234026D01*
X136299133Y-133237066D01*
G37*
X136299133Y-133237066D02*
X136295646Y-133252166D01*
X136282200Y-133254000D01*
X136261292Y-133244706D01*
X136265266Y-133237066D01*
X136295410Y-133234026D01*
X136299133Y-133237066D01*
G36*
X136231400Y-133241300D02*
G01*
X136218700Y-133254000D01*
X136206000Y-133241300D01*
X136218700Y-133228600D01*
X136231400Y-133241300D01*
G37*
X136231400Y-133241300D02*
X136218700Y-133254000D01*
X136206000Y-133241300D01*
X136218700Y-133228600D01*
X136231400Y-133241300D01*
G36*
X136180600Y-133241300D02*
G01*
X136167900Y-133254000D01*
X136155200Y-133241300D01*
X136167900Y-133228600D01*
X136180600Y-133241300D01*
G37*
X136180600Y-133241300D02*
X136167900Y-133254000D01*
X136155200Y-133241300D01*
X136167900Y-133228600D01*
X136180600Y-133241300D01*
G36*
X136053600Y-133241300D02*
G01*
X136040900Y-133254000D01*
X136028200Y-133241300D01*
X136040900Y-133228600D01*
X136053600Y-133241300D01*
G37*
X136053600Y-133241300D02*
X136040900Y-133254000D01*
X136028200Y-133241300D01*
X136040900Y-133228600D01*
X136053600Y-133241300D01*
G36*
X135816951Y-133198437D02*
G01*
X135819979Y-133238134D01*
X135814945Y-133247120D01*
X135803401Y-133239545D01*
X135801605Y-133213783D01*
X135807808Y-133186680D01*
X135816951Y-133198437D01*
G37*
X135816951Y-133198437D02*
X135819979Y-133238134D01*
X135814945Y-133247120D01*
X135803401Y-133239545D01*
X135801605Y-133213783D01*
X135807808Y-133186680D01*
X135816951Y-133198437D01*
G36*
X134834400Y-133241300D02*
G01*
X134821700Y-133254000D01*
X134809000Y-133241300D01*
X134821700Y-133228600D01*
X134834400Y-133241300D01*
G37*
X134834400Y-133241300D02*
X134821700Y-133254000D01*
X134809000Y-133241300D01*
X134821700Y-133228600D01*
X134834400Y-133241300D01*
G36*
X134707400Y-133241300D02*
G01*
X134694700Y-133254000D01*
X134682000Y-133241300D01*
X134694700Y-133228600D01*
X134707400Y-133241300D01*
G37*
X134707400Y-133241300D02*
X134694700Y-133254000D01*
X134682000Y-133241300D01*
X134694700Y-133228600D01*
X134707400Y-133241300D01*
G36*
X134656600Y-133241300D02*
G01*
X134643900Y-133254000D01*
X134631200Y-133241300D01*
X134643900Y-133228600D01*
X134656600Y-133241300D01*
G37*
X134656600Y-133241300D02*
X134643900Y-133254000D01*
X134631200Y-133241300D01*
X134643900Y-133228600D01*
X134656600Y-133241300D01*
G36*
X134580400Y-133241300D02*
G01*
X134567700Y-133254000D01*
X134555000Y-133241300D01*
X134567700Y-133228600D01*
X134580400Y-133241300D01*
G37*
X134580400Y-133241300D02*
X134567700Y-133254000D01*
X134555000Y-133241300D01*
X134567700Y-133228600D01*
X134580400Y-133241300D01*
G36*
X134529600Y-133241300D02*
G01*
X134516900Y-133254000D01*
X134504200Y-133241300D01*
X134516900Y-133228600D01*
X134529600Y-133241300D01*
G37*
X134529600Y-133241300D02*
X134516900Y-133254000D01*
X134504200Y-133241300D01*
X134516900Y-133228600D01*
X134529600Y-133241300D01*
G36*
X134478800Y-133241300D02*
G01*
X134466100Y-133254000D01*
X134453400Y-133241300D01*
X134466100Y-133228600D01*
X134478800Y-133241300D01*
G37*
X134478800Y-133241300D02*
X134466100Y-133254000D01*
X134453400Y-133241300D01*
X134466100Y-133228600D01*
X134478800Y-133241300D01*
G36*
X135994333Y-133237066D02*
G01*
X135997373Y-133267210D01*
X135994333Y-133270933D01*
X135979233Y-133267446D01*
X135977400Y-133254000D01*
X135986693Y-133233092D01*
X135994333Y-133237066D01*
G37*
X135994333Y-133237066D02*
X135997373Y-133267210D01*
X135994333Y-133270933D01*
X135979233Y-133267446D01*
X135977400Y-133254000D01*
X135986693Y-133233092D01*
X135994333Y-133237066D01*
G36*
X136307600Y-133317500D02*
G01*
X136294900Y-133330200D01*
X136282200Y-133317500D01*
X136294900Y-133304800D01*
X136307600Y-133317500D01*
G37*
X136307600Y-133317500D02*
X136294900Y-133330200D01*
X136282200Y-133317500D01*
X136294900Y-133304800D01*
X136307600Y-133317500D01*
G36*
X136256800Y-133317500D02*
G01*
X136244100Y-133330200D01*
X136231400Y-133317500D01*
X136244100Y-133304800D01*
X136256800Y-133317500D01*
G37*
X136256800Y-133317500D02*
X136244100Y-133330200D01*
X136231400Y-133317500D01*
X136244100Y-133304800D01*
X136256800Y-133317500D01*
G36*
X136180600Y-133317500D02*
G01*
X136167900Y-133330200D01*
X136155200Y-133317500D01*
X136167900Y-133304800D01*
X136180600Y-133317500D01*
G37*
X136180600Y-133317500D02*
X136167900Y-133330200D01*
X136155200Y-133317500D01*
X136167900Y-133304800D01*
X136180600Y-133317500D01*
G36*
X136129800Y-133317500D02*
G01*
X136117100Y-133330200D01*
X136104400Y-133317500D01*
X136117100Y-133304800D01*
X136129800Y-133317500D01*
G37*
X136129800Y-133317500D02*
X136117100Y-133330200D01*
X136104400Y-133317500D01*
X136117100Y-133304800D01*
X136129800Y-133317500D01*
G36*
X136079000Y-133317500D02*
G01*
X136066300Y-133330200D01*
X136053600Y-133317500D01*
X136066300Y-133304800D01*
X136079000Y-133317500D01*
G37*
X136079000Y-133317500D02*
X136066300Y-133330200D01*
X136053600Y-133317500D01*
X136066300Y-133304800D01*
X136079000Y-133317500D01*
G36*
X136019733Y-133313266D02*
G01*
X136016246Y-133328366D01*
X136002800Y-133330200D01*
X135981892Y-133320906D01*
X135985866Y-133313266D01*
X136016010Y-133310226D01*
X136019733Y-133313266D01*
G37*
X136019733Y-133313266D02*
X136016246Y-133328366D01*
X136002800Y-133330200D01*
X135981892Y-133320906D01*
X135985866Y-133313266D01*
X136016010Y-133310226D01*
X136019733Y-133313266D01*
G36*
X135952000Y-133317500D02*
G01*
X135939300Y-133330200D01*
X135926600Y-133317500D01*
X135939300Y-133304800D01*
X135952000Y-133317500D01*
G37*
X135952000Y-133317500D02*
X135939300Y-133330200D01*
X135926600Y-133317500D01*
X135939300Y-133304800D01*
X135952000Y-133317500D01*
G36*
X134783600Y-133317500D02*
G01*
X134770900Y-133330200D01*
X134758200Y-133317500D01*
X134770900Y-133304800D01*
X134783600Y-133317500D01*
G37*
X134783600Y-133317500D02*
X134770900Y-133330200D01*
X134758200Y-133317500D01*
X134770900Y-133304800D01*
X134783600Y-133317500D01*
G36*
X134478800Y-133317500D02*
G01*
X134466100Y-133330200D01*
X134453400Y-133317500D01*
X134466100Y-133304800D01*
X134478800Y-133317500D01*
G37*
X134478800Y-133317500D02*
X134466100Y-133330200D01*
X134453400Y-133317500D01*
X134466100Y-133304800D01*
X134478800Y-133317500D01*
G36*
X134428000Y-133317500D02*
G01*
X134415300Y-133330200D01*
X134402600Y-133317500D01*
X134415300Y-133304800D01*
X134428000Y-133317500D01*
G37*
X134428000Y-133317500D02*
X134415300Y-133330200D01*
X134402600Y-133317500D01*
X134415300Y-133304800D01*
X134428000Y-133317500D01*
G36*
X135892733Y-133313266D02*
G01*
X135895773Y-133343410D01*
X135892733Y-133347133D01*
X135877633Y-133343646D01*
X135875800Y-133330200D01*
X135885093Y-133309292D01*
X135892733Y-133313266D01*
G37*
X135892733Y-133313266D02*
X135895773Y-133343410D01*
X135892733Y-133347133D01*
X135877633Y-133343646D01*
X135875800Y-133330200D01*
X135885093Y-133309292D01*
X135892733Y-133313266D01*
G36*
X135875800Y-133444500D02*
G01*
X135863100Y-133457200D01*
X135850400Y-133444500D01*
X135863100Y-133431800D01*
X135875800Y-133444500D01*
G37*
X135875800Y-133444500D02*
X135863100Y-133457200D01*
X135850400Y-133444500D01*
X135863100Y-133431800D01*
X135875800Y-133444500D01*
G36*
X135799600Y-133444500D02*
G01*
X135786900Y-133457200D01*
X135774200Y-133444500D01*
X135786900Y-133431800D01*
X135799600Y-133444500D01*
G37*
X135799600Y-133444500D02*
X135786900Y-133457200D01*
X135774200Y-133444500D01*
X135786900Y-133431800D01*
X135799600Y-133444500D01*
G36*
X135842431Y-133499007D02*
G01*
X135837700Y-133508000D01*
X135813767Y-133532257D01*
X135809301Y-133533400D01*
X135807568Y-133516992D01*
X135812300Y-133508000D01*
X135836232Y-133483742D01*
X135840698Y-133482600D01*
X135842431Y-133499007D01*
G37*
X135842431Y-133499007D02*
X135837700Y-133508000D01*
X135813767Y-133532257D01*
X135809301Y-133533400D01*
X135807568Y-133516992D01*
X135812300Y-133508000D01*
X135836232Y-133483742D01*
X135840698Y-133482600D01*
X135842431Y-133499007D01*
G36*
X134961400Y-133647700D02*
G01*
X134948700Y-133660400D01*
X134936000Y-133647700D01*
X134948700Y-133635000D01*
X134961400Y-133647700D01*
G37*
X134961400Y-133647700D02*
X134948700Y-133660400D01*
X134936000Y-133647700D01*
X134948700Y-133635000D01*
X134961400Y-133647700D01*
G36*
X135621800Y-133673100D02*
G01*
X135609100Y-133685800D01*
X135596400Y-133673100D01*
X135609100Y-133660400D01*
X135621800Y-133673100D01*
G37*
X135621800Y-133673100D02*
X135609100Y-133685800D01*
X135596400Y-133673100D01*
X135609100Y-133660400D01*
X135621800Y-133673100D01*
G36*
X134910600Y-133673100D02*
G01*
X134897900Y-133685800D01*
X134885200Y-133673100D01*
X134897900Y-133660400D01*
X134910600Y-133673100D01*
G37*
X134910600Y-133673100D02*
X134897900Y-133685800D01*
X134885200Y-133673100D01*
X134897900Y-133660400D01*
X134910600Y-133673100D01*
G36*
X135842431Y-133676807D02*
G01*
X135837700Y-133685800D01*
X135813767Y-133710057D01*
X135809301Y-133711200D01*
X135807568Y-133694792D01*
X135812300Y-133685800D01*
X135836232Y-133661542D01*
X135840698Y-133660400D01*
X135842431Y-133676807D01*
G37*
X135842431Y-133676807D02*
X135837700Y-133685800D01*
X135813767Y-133710057D01*
X135809301Y-133711200D01*
X135807568Y-133694792D01*
X135812300Y-133685800D01*
X135836232Y-133661542D01*
X135840698Y-133660400D01*
X135842431Y-133676807D01*
G36*
X135672600Y-133698500D02*
G01*
X135659900Y-133711200D01*
X135647200Y-133698500D01*
X135659900Y-133685800D01*
X135672600Y-133698500D01*
G37*
X135672600Y-133698500D02*
X135659900Y-133711200D01*
X135647200Y-133698500D01*
X135659900Y-133685800D01*
X135672600Y-133698500D01*
G36*
X135571000Y-133698500D02*
G01*
X135558300Y-133711200D01*
X135545600Y-133698500D01*
X135558300Y-133685800D01*
X135571000Y-133698500D01*
G37*
X135571000Y-133698500D02*
X135558300Y-133711200D01*
X135545600Y-133698500D01*
X135558300Y-133685800D01*
X135571000Y-133698500D01*
G36*
X135621800Y-133723900D02*
G01*
X135609100Y-133736600D01*
X135596400Y-133723900D01*
X135609100Y-133711200D01*
X135621800Y-133723900D01*
G37*
X135621800Y-133723900D02*
X135609100Y-133736600D01*
X135596400Y-133723900D01*
X135609100Y-133711200D01*
X135621800Y-133723900D01*
G36*
X135342400Y-133723900D02*
G01*
X135329700Y-133736600D01*
X135317000Y-133723900D01*
X135329700Y-133711200D01*
X135342400Y-133723900D01*
G37*
X135342400Y-133723900D02*
X135329700Y-133736600D01*
X135317000Y-133723900D01*
X135329700Y-133711200D01*
X135342400Y-133723900D01*
G36*
X135181951Y-133681037D02*
G01*
X135184979Y-133720734D01*
X135179945Y-133729720D01*
X135168401Y-133722145D01*
X135166605Y-133696383D01*
X135172808Y-133669280D01*
X135181951Y-133681037D01*
G37*
X135181951Y-133681037D02*
X135184979Y-133720734D01*
X135179945Y-133729720D01*
X135168401Y-133722145D01*
X135166605Y-133696383D01*
X135172808Y-133669280D01*
X135181951Y-133681037D01*
G36*
X134885200Y-133723900D02*
G01*
X134872500Y-133736600D01*
X134859800Y-133723900D01*
X134872500Y-133711200D01*
X134885200Y-133723900D01*
G37*
X134885200Y-133723900D02*
X134872500Y-133736600D01*
X134859800Y-133723900D01*
X134872500Y-133711200D01*
X134885200Y-133723900D01*
G36*
X135799600Y-133749300D02*
G01*
X135786900Y-133762000D01*
X135774200Y-133749300D01*
X135786900Y-133736600D01*
X135799600Y-133749300D01*
G37*
X135799600Y-133749300D02*
X135786900Y-133762000D01*
X135774200Y-133749300D01*
X135786900Y-133736600D01*
X135799600Y-133749300D01*
G36*
X135562533Y-133745066D02*
G01*
X135559046Y-133760166D01*
X135545600Y-133762000D01*
X135524692Y-133752706D01*
X135528666Y-133745066D01*
X135558810Y-133742026D01*
X135562533Y-133745066D01*
G37*
X135562533Y-133745066D02*
X135559046Y-133760166D01*
X135545600Y-133762000D01*
X135524692Y-133752706D01*
X135528666Y-133745066D01*
X135558810Y-133742026D01*
X135562533Y-133745066D01*
G36*
X135240800Y-133749300D02*
G01*
X135228100Y-133762000D01*
X135215400Y-133749300D01*
X135228100Y-133736600D01*
X135240800Y-133749300D01*
G37*
X135240800Y-133749300D02*
X135228100Y-133762000D01*
X135215400Y-133749300D01*
X135228100Y-133736600D01*
X135240800Y-133749300D01*
G36*
X135360920Y-133772054D02*
G01*
X135353345Y-133783598D01*
X135327583Y-133785394D01*
X135300480Y-133779191D01*
X135312237Y-133770048D01*
X135351934Y-133767020D01*
X135360920Y-133772054D01*
G37*
X135360920Y-133772054D02*
X135353345Y-133783598D01*
X135327583Y-133785394D01*
X135300480Y-133779191D01*
X135312237Y-133770048D01*
X135351934Y-133767020D01*
X135360920Y-133772054D01*
G36*
X134834400Y-133774700D02*
G01*
X134821700Y-133787400D01*
X134809000Y-133774700D01*
X134821700Y-133762000D01*
X134834400Y-133774700D01*
G37*
X134834400Y-133774700D02*
X134821700Y-133787400D01*
X134809000Y-133774700D01*
X134821700Y-133762000D01*
X134834400Y-133774700D01*
G36*
X135977400Y-133800100D02*
G01*
X135964700Y-133812800D01*
X135952000Y-133800100D01*
X135964700Y-133787400D01*
X135977400Y-133800100D01*
G37*
X135977400Y-133800100D02*
X135964700Y-133812800D01*
X135952000Y-133800100D01*
X135964700Y-133787400D01*
X135977400Y-133800100D01*
G36*
X135926600Y-133876300D02*
G01*
X135913900Y-133889000D01*
X135901200Y-133876300D01*
X135913900Y-133863600D01*
X135926600Y-133876300D01*
G37*
X135926600Y-133876300D02*
X135913900Y-133889000D01*
X135901200Y-133876300D01*
X135913900Y-133863600D01*
X135926600Y-133876300D01*
G36*
X135977400Y-133901700D02*
G01*
X135964700Y-133914400D01*
X135952000Y-133901700D01*
X135964700Y-133889000D01*
X135977400Y-133901700D01*
G37*
X135977400Y-133901700D02*
X135964700Y-133914400D01*
X135952000Y-133901700D01*
X135964700Y-133889000D01*
X135977400Y-133901700D01*
G36*
X135333821Y-133831850D02*
G01*
X135337176Y-133883852D01*
X135333821Y-133895350D01*
X135324551Y-133898540D01*
X135321010Y-133863600D01*
X135325002Y-133827541D01*
X135333821Y-133831850D01*
G37*
X135333821Y-133831850D02*
X135337176Y-133883852D01*
X135333821Y-133895350D01*
X135324551Y-133898540D01*
X135321010Y-133863600D01*
X135325002Y-133827541D01*
X135333821Y-133831850D01*
G36*
X134707400Y-133901700D02*
G01*
X134694700Y-133914400D01*
X134682000Y-133901700D01*
X134694700Y-133889000D01*
X134707400Y-133901700D01*
G37*
X134707400Y-133901700D02*
X134694700Y-133914400D01*
X134682000Y-133901700D01*
X134694700Y-133889000D01*
X134707400Y-133901700D01*
G36*
X136020231Y-133930807D02*
G01*
X136015500Y-133939800D01*
X135991567Y-133964057D01*
X135987101Y-133965200D01*
X135985368Y-133948792D01*
X135990100Y-133939800D01*
X136014032Y-133915542D01*
X136018498Y-133914400D01*
X136020231Y-133930807D01*
G37*
X136020231Y-133930807D02*
X136015500Y-133939800D01*
X135991567Y-133964057D01*
X135987101Y-133965200D01*
X135985368Y-133948792D01*
X135990100Y-133939800D01*
X136014032Y-133915542D01*
X136018498Y-133914400D01*
X136020231Y-133930807D01*
G36*
X135359333Y-133948266D02*
G01*
X135355846Y-133963366D01*
X135342400Y-133965200D01*
X135321492Y-133955906D01*
X135325466Y-133948266D01*
X135355610Y-133945226D01*
X135359333Y-133948266D01*
G37*
X135359333Y-133948266D02*
X135355846Y-133963366D01*
X135342400Y-133965200D01*
X135321492Y-133955906D01*
X135325466Y-133948266D01*
X135355610Y-133945226D01*
X135359333Y-133948266D01*
G36*
X135393200Y-134003300D02*
G01*
X135380500Y-134016000D01*
X135367800Y-134003300D01*
X135380500Y-133990600D01*
X135393200Y-134003300D01*
G37*
X135393200Y-134003300D02*
X135380500Y-134016000D01*
X135367800Y-134003300D01*
X135380500Y-133990600D01*
X135393200Y-134003300D01*
G36*
X135435533Y-134176866D02*
G01*
X135432046Y-134191966D01*
X135418600Y-134193800D01*
X135397692Y-134184506D01*
X135401666Y-134176866D01*
X135431810Y-134173826D01*
X135435533Y-134176866D01*
G37*
X135435533Y-134176866D02*
X135432046Y-134191966D01*
X135418600Y-134193800D01*
X135397692Y-134184506D01*
X135401666Y-134176866D01*
X135431810Y-134173826D01*
X135435533Y-134176866D01*
G36*
X135748061Y-134238528D02*
G01*
X135748800Y-134244600D01*
X135729471Y-134269261D01*
X135723400Y-134270000D01*
X135698738Y-134250671D01*
X135698000Y-134244600D01*
X135717328Y-134219938D01*
X135723400Y-134219200D01*
X135748061Y-134238528D01*
G37*
X135748061Y-134238528D02*
X135748800Y-134244600D01*
X135729471Y-134269261D01*
X135723400Y-134270000D01*
X135698738Y-134250671D01*
X135698000Y-134244600D01*
X135717328Y-134219938D01*
X135723400Y-134219200D01*
X135748061Y-134238528D01*
G36*
X135319661Y-134360544D02*
G01*
X135340778Y-134382545D01*
X135315542Y-134401687D01*
X135305593Y-134405688D01*
X135279807Y-134404548D01*
X135282855Y-134383152D01*
X135306796Y-134358372D01*
X135319661Y-134360544D01*
G37*
X135319661Y-134360544D02*
X135340778Y-134382545D01*
X135315542Y-134401687D01*
X135305593Y-134405688D01*
X135279807Y-134404548D01*
X135282855Y-134383152D01*
X135306796Y-134358372D01*
X135319661Y-134360544D01*
D11*
%TO.C,REF\u002A\u002A*%
X114372899Y-136318198D02*
X114691097Y-136000000D01*
X114691097Y-136000000D02*
X114372899Y-135681802D01*
X111318198Y-139372899D02*
X111000000Y-139691097D01*
X111000000Y-139691097D02*
X110681802Y-139372899D01*
X110681802Y-132627101D02*
X111000000Y-132308903D01*
X111000000Y-132308903D02*
X111318198Y-132627101D01*
X107627101Y-135681802D02*
X107308903Y-136000000D01*
X107308903Y-136000000D02*
X107627101Y-136318198D01*
X107627101Y-136318198D02*
X106697255Y-137248043D01*
%TD*%
M02*
